<svg width="433" height="85" viewBox="0 0 433 85" fill="none" xmlns="http://www.w3.org/2000/svg">
<path d="M128.648 68V23.2H141.064L158.984 52.448H152.456L169.864 23.2H182.28L182.408 68H168.648L168.52 43.936H170.696L158.792 63.968H152.136L139.72 43.936H142.408V68H128.648ZM211.151 69.024C204.281 69.024 198.927 67.168 195.087 63.456C191.247 59.744 189.327 54.5387 189.327 47.84V23.2H204.431V47.392C204.431 50.8053 205.049 53.2373 206.287 54.688C207.524 56.096 209.188 56.8 211.279 56.8C213.412 56.8 215.076 56.096 216.271 54.688C217.508 53.2373 218.127 50.8053 218.127 47.392V23.2H232.975V47.84C232.975 54.5387 231.055 59.744 227.215 63.456C223.375 67.168 218.02 69.024 211.151 69.024ZM239.898 68V23.2H261.978C266.97 23.2 271.365 24.1173 275.162 25.952C278.959 27.744 281.925 30.304 284.058 33.632C286.191 36.96 287.258 40.928 287.258 45.536C287.258 50.1867 286.191 54.1973 284.058 57.568C281.925 60.896 278.959 63.4773 275.162 65.312C271.365 67.104 266.97 68 261.978 68H239.898ZM255.002 56.224H261.338C263.471 56.224 265.327 55.8187 266.906 55.008C268.527 54.1973 269.786 53.0027 270.682 51.424C271.578 49.8027 272.026 47.84 272.026 45.536C272.026 43.2747 271.578 41.3547 270.682 39.776C269.786 38.1973 268.527 37.0027 266.906 36.192C265.327 35.3813 263.471 34.976 261.338 34.976H255.002V56.224ZM292.773 68V23.2H314.341C318.522 23.2 322.128 23.8827 325.157 25.248C328.229 26.6133 330.597 28.576 332.261 31.136C333.925 33.6533 334.757 36.64 334.757 40.096C334.757 43.552 333.925 46.5387 332.261 49.056C330.597 51.5307 328.229 53.4293 325.157 54.752C322.128 56.0747 318.522 56.736 314.341 56.736H301.157L307.877 50.528V68H292.773ZM319.589 68L308.581 51.68H324.581L335.717 68H319.589ZM307.877 52.192L301.157 45.344H313.381C315.472 45.344 317.008 44.8747 317.989 43.936C319.013 42.9973 319.525 41.7173 319.525 40.096C319.525 38.4747 319.013 37.1947 317.989 36.256C317.008 35.3173 315.472 34.848 313.381 34.848H301.157L307.877 28V52.192ZM351.356 68V48.352L354.812 57.376L334.459 23.2H350.396L364.156 46.56H354.876L368.764 23.2H383.356L363.132 57.376L366.46 48.352V68H351.356ZM398.777 58.4L397.945 41.824L414.841 23.2H431.289L412.345 44.064L403.961 52.64L398.777 58.4ZM385.273 68V23.2H400.121V68H385.273ZM414.713 68L401.529 50.592L411.321 40.224L432.185 68H414.713Z" fill="#5986EF"/>
<path d="M106.297 77.6811V57.9411C106.297 51.8971 99.0773 48.7741 94.6733 52.9141L73.6723 72.6541C69.1183 76.9351 72.1473 84.5801 78.3973 84.5801H99.3983C103.208 84.5801 106.297 81.4911 106.297 77.6811Z" fill="#5986EF"/>
<path d="M6.89899 84.5801H27.901C34.151 84.5801 37.18 76.9341 32.626 72.6541L11.624 52.9141C7.21996 48.7751 0 51.8971 0 57.9411V77.6811C0 81.4911 3.08899 84.5801 6.89899 84.5801Z" fill="#5986EF"/>
<path d="M48.423 36.475L11.624 1.886C7.22002 -2.253 0 0.869003 0 6.913V26.785C0 28.689 0.787011 30.508 2.17401 31.812L48.423 75.284C51.079 77.78 55.218 77.78 57.873 75.284L104.122 31.812C105.509 30.508 106.296 28.689 106.296 26.785V6.913C106.296 0.869003 99.076 -2.254 94.672 1.886L57.873 36.475C55.218 38.971 51.078 38.971 48.423 36.475Z" fill="#5986EF"/>
</svg>
